<svg width="713" height="314" viewBox="0 0 713 314" xmlns="http://www.w3.org/2000/svg"><defs><pattern id="satori_pattern_id_0" x="0" y="0" width="1" height="1" patternUnits="objectBoundingBox"><linearGradient id="satori_biid_0" x1="0" y1="0" x2="0" y2="1"><stop offset="0%" stop-color="#dbf4ff"/><stop offset="100%" stop-color="#fff1f1"/></linearGradient><rect x="0" y="0" width="713" height="314" fill="url(#satori_biid_0)"/></pattern></defs><mask id="satori_om-id"><rect x="0" y="0" width="713" height="314" fill="#fff"/></mask><rect x="0" y="0" width="713" height="314" fill="url(#satori_pattern_id_0)"/><clipPath id="satori_bct-id-0"><path d="M210.7 177.2L201.8 177.2L201.8 133.5L210.9 133.5L210.9 149.9L211.1 149.9Q211.7 148.6 212.9 147.2Q214.0 145.9 215.9 144.9Q217.7 144.0 220.5 144.0L220.5 144.0Q224.0 144.0 227.1 145.9Q230.1 147.7 231.9 151.5Q233.7 155.2 233.7 160.8L233.7 160.8Q233.7 166.3 232.0 170.1Q230.2 173.8 227.2 175.8Q224.2 177.7 220.4 177.7L220.4 177.7Q217.8 177.7 216.0 176.8Q214.1 175.9 212.9 174.6Q211.8 173.3 211.1 171.9L211.1 171.9L210.7 171.9L210.7 177.2ZM210.7 160.8L210.7 160.8Q210.7 163.7 211.5 165.9Q212.3 168.1 213.8 169.3Q215.4 170.5 217.6 170.5L217.6 170.5Q219.8 170.5 221.3 169.2Q222.8 168.0 223.6 165.8Q224.4 163.7 224.4 160.8L224.4 160.8Q224.4 158.0 223.7 155.8Q222.9 153.7 221.3 152.4Q219.8 151.2 217.6 151.2L217.6 151.2Q215.3 151.2 213.8 152.4Q212.3 153.6 211.5 155.7Q210.7 157.9 210.7 160.8ZM238.2 155.6L258.1 155.6L258.1 162.8L238.2 162.8L238.2 155.6ZM272.9 189.4L263.9 189.4L263.9 144.4L272.8 144.4L272.8 149.9L273.2 149.9Q273.8 148.6 275.0 147.2Q276.1 145.9 277.9 144.9Q279.8 144.0 282.5 144.0L282.5 144.0Q286.1 144.0 289.1 145.9Q292.2 147.7 294.0 151.5Q295.8 155.2 295.8 160.8L295.8 160.8Q295.8 166.3 294.0 170.1Q292.3 173.8 289.3 175.8Q286.2 177.7 282.5 177.7L282.5 177.7Q279.9 177.7 278.0 176.8Q276.2 175.9 275.0 174.6Q273.8 173.3 273.2 171.9L273.2 171.9L272.9 171.9L272.9 189.4ZM272.8 160.8L272.8 160.8Q272.8 163.7 273.6 165.9Q274.4 168.1 275.9 169.3Q277.4 170.5 279.6 170.5L279.6 170.5Q281.8 170.5 283.4 169.2Q284.9 168.0 285.7 165.8Q286.5 163.7 286.5 160.8L286.5 160.8Q286.5 158.0 285.7 155.8Q284.9 153.7 283.4 152.4Q281.9 151.2 279.6 151.2L279.6 151.2Q277.4 151.2 275.9 152.4Q274.4 153.6 273.6 155.7Q272.8 157.9 272.8 160.8ZM314.7 177.8L314.7 177.8Q309.7 177.8 306.0 175.7Q302.4 173.7 300.5 169.9Q298.5 166.1 298.5 160.9L298.5 160.9Q298.5 155.9 300.5 152.1Q302.4 148.3 306.0 146.1Q309.5 144.0 314.4 144.0L314.4 144.0Q317.6 144.0 320.4 145.0Q323.2 146.1 325.3 148.1Q327.4 150.2 328.6 153.3Q329.7 156.5 329.7 160.6L329.7 160.6L329.7 163.1L302.1 163.1L302.1 157.5L321.2 157.5Q321.2 155.5 320.4 154.0Q319.5 152.5 318.0 151.6Q316.5 150.8 314.5 150.8L314.5 150.8Q312.4 150.8 310.9 151.7Q309.3 152.7 308.4 154.3Q307.5 155.9 307.5 157.8L307.5 157.8L307.5 163.1Q307.5 165.6 308.4 167.3Q309.3 169.1 310.9 170.1Q312.6 171.0 314.9 171.0L314.9 171.0Q316.4 171.0 317.6 170.6Q318.9 170.2 319.8 169.3Q320.7 168.5 321.2 167.2L321.2 167.2L329.6 167.8Q328.9 170.8 326.9 173.1Q325.0 175.3 321.9 176.6Q318.8 177.8 314.7 177.8ZM333.7 133.5L342.7 133.5L342.7 177.2L333.7 177.2L333.7 133.5ZM357.1 177.2L348.0 177.2L348.0 144.4L356.6 144.4L356.6 150.2L357.0 150.2Q358.0 147.3 360.4 145.7Q362.8 144.0 366.1 144.0L366.1 144.0Q369.5 144.0 371.9 145.7Q374.2 147.4 375.0 150.2L375.0 150.2L375.4 150.2Q376.4 147.4 379.0 145.7Q381.6 144.0 385.2 144.0L385.2 144.0Q389.8 144.0 392.7 146.9Q395.5 149.8 395.5 155.2L395.5 155.2L395.5 177.2L386.5 177.2L386.5 156.9Q386.5 154.2 385.0 152.8Q383.6 151.5 381.4 151.5L381.4 151.5Q379.0 151.5 377.6 153.1Q376.2 154.6 376.2 157.2L376.2 157.2L376.2 177.2L367.4 177.2L367.4 156.7Q367.4 154.3 366.0 152.9Q364.6 151.5 362.4 151.5L362.4 151.5Q360.9 151.5 359.7 152.2Q358.5 153.0 357.8 154.4Q357.1 155.7 357.1 157.5L357.1 157.5L357.1 177.2ZM415.5 177.8L415.5 177.8Q410.5 177.8 406.9 175.7Q403.3 173.6 401.3 169.8Q399.4 166.0 399.4 160.9L399.4 160.9Q399.4 155.9 401.3 152.1Q403.3 148.2 406.9 146.1Q410.5 144.0 415.5 144.0L415.5 144.0Q420.5 144.0 424.1 146.1Q427.7 148.2 429.6 152.1Q431.6 155.9 431.6 160.9L431.6 160.9Q431.6 166.0 429.6 169.8Q427.7 173.6 424.1 175.7Q420.5 177.8 415.5 177.8ZM415.5 170.8L415.5 170.8Q417.8 170.8 419.3 169.5Q420.8 168.2 421.6 166.0Q422.4 163.7 422.4 160.9L422.4 160.9Q422.4 158.0 421.6 155.8Q420.8 153.5 419.3 152.2Q417.8 150.9 415.5 150.9L415.5 150.9Q413.3 150.9 411.7 152.2Q410.2 153.5 409.4 155.8Q408.6 158.0 408.6 160.9L408.6 160.9Q408.6 163.7 409.4 166.0Q410.2 168.2 411.7 169.5Q413.3 170.8 415.5 170.8ZM444.6 177.2L435.5 177.2L435.5 144.4L444.6 144.4L444.6 177.2ZM440.1 140.2L440.1 140.2Q438.1 140.2 436.6 138.9Q435.2 137.5 435.2 135.6L435.2 135.6Q435.2 133.7 436.6 132.4Q438.1 131.0 440.1 131.0L440.1 131.0Q442.1 131.0 443.5 132.4Q445.0 133.7 445.0 135.6L445.0 135.6Q445.0 137.5 443.5 138.9Q442.1 140.2 440.1 140.2ZM458.9 158.2L458.9 158.2L458.9 177.2L449.8 177.2L449.8 144.4L458.5 144.4L458.5 150.2L458.9 150.2Q460.0 147.4 462.5 145.7Q465.1 144.0 468.7 144.0L468.7 144.0Q472.1 144.0 474.7 145.5Q477.2 147.0 478.6 149.7Q480.0 152.5 480.0 156.3L480.0 156.3L480.0 177.2L470.9 177.2L470.9 157.9Q471.0 154.9 469.4 153.2Q467.9 151.5 465.1 151.5L465.1 151.5Q463.3 151.5 461.9 152.3Q460.5 153.1 459.7 154.6Q458.9 156.1 458.9 158.2ZM500.1 177.8L500.1 177.8Q495.0 177.8 491.4 175.7Q487.8 173.7 485.8 169.9Q483.8 166.1 483.8 160.9L483.8 160.9Q483.8 155.9 485.8 152.1Q487.8 148.3 491.3 146.1Q494.9 144.0 499.7 144.0L499.7 144.0Q502.9 144.0 505.7 145.0Q508.6 146.1 510.6 148.1Q512.7 150.2 513.9 153.3Q515.1 156.5 515.1 160.6L515.1 160.6L515.1 163.1L487.5 163.1L487.5 157.5L506.5 157.5Q506.5 155.5 505.7 154.0Q504.8 152.5 503.3 151.6Q501.8 150.8 499.9 150.8L499.9 150.8Q497.8 150.8 496.2 151.7Q494.6 152.7 493.7 154.3Q492.8 155.9 492.8 157.8L492.8 157.8L492.8 163.1Q492.8 165.6 493.7 167.3Q494.6 169.1 496.3 170.1Q497.9 171.0 500.2 171.0L500.2 171.0Q501.7 171.0 503.0 170.6Q504.2 170.2 505.1 169.3Q506.0 168.5 506.5 167.2L506.5 167.2L514.9 167.8Q514.3 170.8 512.3 173.1Q510.3 175.3 507.2 176.6Q504.1 177.8 500.1 177.8Z "/></clipPath><defs><pattern id="satori_pattern_id-0_0" x="0" y="0" width="1" height="1" patternUnits="objectBoundingBox"><linearGradient id="satori_biid-0_0" x1="0" y1="0" x2="1" y2="0"><stop offset="0%" stop-color="rgb(0,124,240)"/><stop offset="100%" stop-color="rgb(0,223,216)"/></linearGradient><rect x="0" y="0" width="318" height="72" fill="url(#satori_biid-0_0)"/></pattern></defs><mask id="satori_om-id-0"><rect x="198" y="121" width="318" height="72" fill="#fff"/></mask><rect x="198" y="121" width="318" height="72" fill="url(#satori_pattern_id-0_0)" clip-path="url(#satori_bct-id-0)"/></svg>